<svg xmlns="http://www.w3.org/2000/svg" version="1.1" xmlns:xlink="http://www.w3.org/1999/xlink" xmlns:svgjs="http://svgjs.dev/svgjs" width="2000" height="2000" viewBox="0 0 2000 2000"><g transform="matrix(1,0,0,1,-0.28443113772425477,-0.28443113772459583)"><svg viewBox="0 0 334 334" data-background-color="#c55501" preserveAspectRatio="xMidYMid meet" height="2000" width="2000" xmlns="http://www.w3.org/2000/svg" xmlns:xlink="http://www.w3.org/1999/xlink"><g id="tight-bounds" transform="matrix(1,0,0,1,0.04749999999998522,0.04750000000001364)"><svg viewBox="0 0 333.90454557049503 333.90454557049503" height="333.90454557049503" width="333.90454557049503"><g><svg></svg></g><g><svg viewBox="0 0 333.90454557049503 333.90454557049503" height="333.90454557049503" width="333.90454557049503"><g><path d="M0 166.952c0-92.205 74.747-166.952 166.952-166.952 92.205 0 166.952 74.747 166.953 166.952 0 92.205-74.747 166.952-166.953 166.953-92.205 0-166.952-74.747-166.952-166.953zM166.952 325.201c87.399 0 158.249-70.851 158.249-158.249 0-87.399-70.851-158.249-158.249-158.249-87.399 0-158.249 70.851-158.249 158.249 0 87.399 70.851 158.249 158.249 158.249z" data-fill-palette-color="tertiary" fill="#fcde30" stroke="transparent"></path><ellipse rx="160.27418187383762" ry="160.27418187383762" cx="166.95227278524752" cy="166.95227278524752" fill="#fcde30" stroke="transparent" stroke-width="0" fill-opacity="1" data-fill-palette-color="tertiary"></ellipse></g><g transform="matrix(1,0,0,1,94.25267448535139,71.17305217166896)"><svg viewBox="0 0 145.39919659979225 191.55844122715712" height="191.55844122715712" width="145.39919659979225"><g><svg viewBox="0 0 145.39919659979225 191.55844122715712" height="191.55844122715712" width="145.39919659979225"><g><svg viewBox="0 0 213.1584412271571 280.82891577643795" height="191.55844122715712" width="145.39919659979225"><g transform="matrix(1,0,0,1,0,139.3479284124787)"><svg viewBox="0 0 213.1584412271571 141.48098736395923" height="141.48098736395923" width="213.1584412271571"><g id="textblocktransform"><svg viewBox="0 0 213.1584412271571 141.48098736395923" height="141.48098736395923" width="213.1584412271571" id="textblock"><g><svg viewBox="0 0 213.1584412271571 141.48098736395923" height="141.48098736395923" width="213.1584412271571"><g transform="matrix(1,0,0,1,0,0)"><svg width="213.1584412271571" viewBox="3.91 -36.25 55.540000000000006 36.86" height="141.48098736395923" data-palette-color="#c55501"><path d="M8.91-31.62L8.91-20.63 22.83-20.63 22.83-16.72 8.91-16.72 8.91-4.03 15.36-4.03Q18.97-4.03 21.45-4.09 23.93-4.15 25.39-4.39L25.39-4.39 25.39 0 3.91 0Q4.17-1.46 4.22-4.24 4.27-7.01 4.27-10.62L4.27-10.62 4.27-25.02Q4.27-28.64 4.22-31.41 4.17-34.18 3.91-35.64L3.91-35.64 24.66-35.64 24.66-31.62 8.91-31.62ZM46.26-18.19L59.45-18.19 59.45-3.78Q55.69-1.15 52.68-0.27 49.68 0.61 46.51 0.61L46.51 0.61Q41.89 0.61 38.32-1.5 34.74-3.61 32.69-7.68 30.64-11.74 30.64-17.58L30.64-17.58Q30.64-23.44 32.9-27.61 35.15-31.79 38.99-34.02 42.82-36.25 47.48-36.25L47.48-36.25Q50.46-36.25 53.17-35.62 55.88-34.99 59.08-32.84L59.08-32.84 57.49-28.44Q54.76-30.66 52.34-31.38 49.92-32.1 47.48-32.1L47.48-32.1Q43.77-32.1 41.05-30.4 38.33-28.69 36.86-25.57 35.4-22.46 35.4-18.19L35.4-18.19Q35.4-13.7 36.79-10.44 38.18-7.18 40.74-5.42 43.31-3.66 46.8-3.66L46.8-3.66Q48.97-3.66 50.78-4.15 52.59-4.64 54.81-5.98L54.81-5.98 54.81-14.16 46.26-14.16 46.26-18.19Z" opacity="1" transform="matrix(1,0,0,1,0,0)" fill="#c55501" class="wordmark-text-0" data-fill-palette-color="quaternary" id="text-0"></path></svg></g></svg></g></svg></g></svg></g><g transform="matrix(1,0,0,1,40.713262274387006,0)"><svg viewBox="0 0 131.7319166783831 105.94766283954466" height="105.94766283954466" width="131.7319166783831"><g><svg xmlns="http://www.w3.org/2000/svg" xmlns:xlink="http://www.w3.org/1999/xlink" version="1.1" x="0" y="0" viewBox="0 9.786 100.00034525290006 80.42699999999999" enable-background="new 0 0 100 100" xml:space="preserve" width="131.7319166783831" height="105.94766283954466" class="icon-icon-0" data-fill-palette-color="quaternary" id="icon-0"><path d="M49.942 52.994c13.552-0.488 27.103-0.977 40.653-1.465-2.527-4.177-3.159-7.831-7.989-8.461-7.229-0.94-14.458-1.883-21.688-2.826-14.023-1.827-28.05-3.654-42.075-5.48C20.101 36.792 39.724 53.361 49.942 52.994z" fill="#c55501" data-fill-palette-color="quaternary"></path><path d="M0 9.786c4.391 7.257 26.615 23.072 32.953 23.886 17.33 2.231 34.657 4.46 51.986 6.688-3.393-5.607-4.18-9.35-10.312-10.959-8.904-2.341-17.812-4.683-26.717-7.023C31.94 18.182 15.97 13.984 0 9.786z" fill="#c55501" data-fill-palette-color="quaternary"></path><path d="M63.108 66.207c10.413-2.219 20.826-4.439 31.241-6.66-2.028-3.346-2.034-5.359-5.827-5.189-6.158 0.273-12.314 0.549-18.471 0.822-11.343 0.506-22.686 1.014-34.028 1.518C37.298 58.064 54.94 67.947 63.108 66.207z" fill="#c55501" data-fill-palette-color="quaternary"></path><path d="M87.682 90.213c5.725-3.719 7.262-7.721 10.519-13.807 3.651-6.824 1.257-7.844-2.821-14.596-0.417-0.688-5.842 0.232-6.453 0.904-0.745 0.818-0.248 5.455-0.294 6.496C88.315 76.211 87.998 83.213 87.682 90.213z" fill="#c55501" data-fill-palette-color="quaternary"></path><path d="M86.35 63.447c-3.795 0.809-8.604 0.191-9.572 4.229-1.373 5.736-2.746 11.475-4.12 17.211C81.904 82.678 86.028 71.582 86.35 63.447z" fill="#c55501" data-fill-palette-color="quaternary"></path><path d="M74.666 66.121c-9.148 1.953-8.956 4.611-12.879 13.18C68.007 78.711 73.811 71.941 74.666 66.121z" fill="#c55501" data-fill-palette-color="quaternary"></path></svg></g></svg></g><g></g></svg></g></svg></g></svg></g></svg></g><defs></defs></svg><rect width="333.90454557049503" height="333.90454557049503" fill="none" stroke="none" visibility="hidden"></rect></g></svg></g></svg>